PathFileType	4	(X/Y/Z)	/Users/niels/Desktop/University/Third Semester/Perception and Action/Exam/Gymnastics Motion Tracking/Code for Gym Tracking/Analyzed Data/Webcam_Backflip/id15_1_baseline_Sports2D/id15_1_baseline_Sports2D_px_person00.trc
DataRate	CameraRate	NumFrames	NumMarkers	Units	OrigDataRate	OrigDataStartFrame	OrigNumFrames
29.708737864077673	29.708737864077673	9	22	m	29.708737864077673	64	103
Frame#	Time	Hip			RHip			RKnee			RAnkle			RBigToe			RSmallToe			RHeel			LHip			LKnee			LAnkle			LBigToe			LSmallToe			LHeel			Neck			Head			Nose			RShoulder			RElbow			RWrist			LShoulder			LElbow			LWrist		
		X1	Y1	Z1	X2	Y2	Z2	X3	Y3	Z3	X4	Y4	Z4	X5	Y5	Z5	X6	Y6	Z6	X7	Y7	Z7	X8	Y8	Z8	X9	Y9	Z9	X10	Y10	Z10	X11	Y11	Z11	X12	Y12	Z12	X13	Y13	Z13	X14	Y14	Z14	X15	Y15	Z15	X16	Y16	Z16	X17	Y17	Z17	X18	Y18	Z18	X19	Y19	Z19	X20	Y20	Z20	X21	Y21	Z21	X22	Y22	Z22
64	2.154248366013072	1.046684141890183	-0.6795995049893427	0.0	0.9924609835944173	-0.6946608297690184	0.0	0.8982621707889942	-0.876907894656874	0.0	0.835935475543086	-0.9480032397309192	0.0	0.7816187034303673	-0.967779808644489	0.0	0.7759337413469247	-0.9589100935966717	0.0	0.8340047177192947	-0.964055809482048	0.0	1.0932456000890343	-0.6763964515326699	0.0	1.2234516879562047	-0.7333262468128422	0.0	1.3402284384021117	-0.9497943109597053	0.0	1.3620150917780236	-0.9919895794521669	0.0	1.3822121117160542	-0.9839901269646253	0.0	1.346017404372979	-0.9770358439556829	0.0	1.0470326073871614	-0.42764460412732364	0.0	1.056887762233094	-0.3046550210989599	0.0	1.066000330916163	-0.3801015756175473	0.0	0.992577266523256	-0.4453951485627227	0.0	1.004949290345162	-0.47020356896854315	0.0	1.0037453716156	-0.470379907648878	0.0	1.1055208159171142	-0.45417804325740757	0.0	1.117372219235133	-0.5249654138742553	0.0	1.1401559280147282	-0.5674713525256363	0.0
65	2.187908496732026	1.0467702737766869	-0.6800318049824975	0.0	0.9922413068608906	-0.6952133745152953	0.0	0.8976048276706258	-0.8770422264690032	0.0	0.8350078795960936	-0.9490185400985034	0.0	0.7805884059915944	-0.9683123758184867	0.0	0.7749984184348463	-0.9595174182240428	0.0	0.8335076344578524	-0.96475179264968	0.0	1.093557579295054	-0.6768481397344954	0.0	1.2236071064458058	-0.7326355946864743	0.0	1.339201077707663	-0.94944598835884	0.0	1.3628561691963623	-0.991780379216036	0.0	1.3825882529312328	-0.9835905179126248	0.0	1.344689861148566	-0.9761053681807864	0.0	1.046910904047486	-0.4281457543989705	0.0	1.0554964559516324	-0.30525835877528257	0.0	1.064849519381233	-0.38000014943983723	0.0	0.9920468337962163	-0.4462073265436716	0.0	1.0040181625266318	-0.4711545597368008	0.0	1.0013014238133338	-0.47067383718642014	0.0	1.1056717543098153	-0.45481635625661393	0.0	1.1184719691842475	-0.5258398527546518	0.0	1.1414517623695102	-0.5671575962680178	0.0
66	2.2215686274509805	1.046924017656571	-0.6801379219869581	0.0	0.9920454579614189	-0.6951813157085932	0.0	0.8967858061587481	-0.8761705456533867	0.0	0.8339739824704934	-0.9499101176511063	0.0	0.7794947774736363	-0.9686413439042835	0.0	0.7738801266615303	-0.9599976189046784	0.0	0.8331178859876417	-0.9654449746379994	0.0	1.094171496570869	-0.6767812425949031	0.0	1.2237065353560612	-0.7320312185602447	0.0	1.3380023015671554	-0.9494321363700352	0.0	1.3647356002882278	-0.9917109244903786	0.0	1.3835802544133124	-0.9834160976705724	0.0	1.34297044026003	-0.9755637986618415	0.0	1.0465576769061704	-0.4282767625976263	0.0	1.0537088770439103	-0.30542511928691485	0.0	1.0633799607883265	-0.379571777043891	0.0	0.9909858671190346	-0.44721408948547614	0.0	1.0022437158391142	-0.47436757988551775	0.0	0.9986470787889912	-0.47352446611018645	0.0	1.1057768971345923	-0.45517474042315587	0.0	1.1190531630855496	-0.5271174042092968	0.0	1.1425017098100874	-0.5662375116691694	0.0
67	2.2552287581699346	1.0470979147005164	-0.6798624439440049	0.0	0.9919716850774994	-0.694478931349705	0.0	0.8957238071531163	-0.8740110903724544	0.0	0.8329227187362737	-0.950381813487908	0.0	0.7785268326329894	-0.9687112866527335	0.0	0.7728507466091958	-0.9603324884910441	0.0	0.8330786214481155	-0.9659858084230237	0.0	1.0950502943294715	-0.6761386334784709	0.0	1.2235420101138694	-0.7317844088534488	0.0	1.3366209517403862	-0.949830659107786	0.0	1.367391514130083	-0.9920868259140105	0.0	1.3850610180035383	-0.9836478768935196	0.0	1.3408902706298653	-0.9756847405779705	0.0	1.0458680493299912	-0.427796294056084	0.0	1.0512786236798672	-0.3049750737286466	0.0	1.0615058734749263	-0.37859050092705604	0.0	0.9891763220258356	-0.4482552585278837	0.0	0.9986469346836034	-0.47963171132968185	0.0	0.9954155114671873	-0.4796186010181523	0.0	1.106073658007442	-0.4550646906189117	0.0	1.1194879591870823	-0.5284483679298074	0.0	1.1438224158063506	-0.5647395191267042	0.0
68	2.2888888888888888	1.0473067222536567	-0.6790742452562751	0.0	0.9920870214131572	-0.6929269096233137	0.0	0.8944807233043669	-0.8702215083471028	0.0	0.8319310802573244	-0.9502708646235455	0.0	0.777790791341873	-0.9685365275418268	0.0	0.7720938652402681	-0.9605413829579644	0.0	0.8334494931861266	-0.9663011751131202	0.0	1.096145637096801	-0.6748487598583275	0.0	1.2228112153588544	-0.7321851734865062	0.0	1.3350210734514831	-0.9505734758654003	0.0	1.370281831037602	-0.9929866710270255	0.0	1.3867402857568842	-0.9842885598101359	0.0	1.3385939710747037	-0.9764112554069553	0.0	1.0448631186491535	-0.42645876473591793	0.0	1.0478173818574819	-0.3037383832353526	0.0	1.0590772350510897	-0.3768077356227242	0.0	0.9865358977294206	-0.44934643776545447	0.0	0.9921370475435687	-0.48665031212634174	0.0	0.9911690439426356	-0.48927810084029555	0.0	1.1069064443480816	-0.45437024810322263	0.0	1.1203927901301574	-0.5292268063194878	0.0	1.146126808853078	-0.5627444760706726	0.0
69	2.322549019607843	1.0476083175309956	-0.677588958725202	0.0	0.9924064620654872	-0.6903245435544914	0.0	0.8932718250273599	-0.8645125297967431	0.0	0.8310609857664194	-0.9496125990977954	0.0	0.7772166666511098	-0.9681951571301208	0.0	0.7715823566921086	-0.9606589383344118	0.0	0.8340556941135262	-0.9663769506452177	0.0	1.0973964985930211	-0.6728102735169642	0.0	1.2212782584899613	-0.7334986472186519	0.0	1.333253866150327	-0.951515906612797	0.0	1.3728065717107263	-0.9942002089841113	0.0	1.388252482558443	-0.9851959448741618	0.0	1.3363984808757254	-0.9774450702521924	0.0	1.0436612370049256	-0.4240758202658105	0.0	1.0429815194521206	-0.30158581864330725	0.0	1.0559165701153652	-0.3740946932025516	0.0	0.9831258983192647	-0.4506454417296737	0.0	0.9820543093685178	-0.4954233692077759	0.0	0.9856906184987104	-0.5025445338646772	0.0	1.1085694159966177	-0.4529723588704348	0.0	1.1225538730200295	-0.5288315848728092	0.0	1.1501207578727923	-0.5604584253203497	0.0
70	2.3562091503267975	1.0480511324624753	-0.6752556472245866	0.0	0.9928874148564396	-0.6866416607218525	0.0	0.8923174827148821	-0.8568409541583297	0.0	0.8303027866947756	-0.9486156334562902	0.0	0.7765596063981209	-0.9678136779978452	0.0	0.7710790277051341	-0.9607517150178814	0.0	0.8345992903760596	-0.966260764020938	0.0	1.0987291437708453	-0.6699626024267202	0.0	1.218930321780203	-0.7358077631161832	0.0	1.3315279749369482	-0.9525674586780006	0.0	1.374550186619923	-0.9953739318882323	0.0	1.3892711544487661	-0.9861704713995801	0.0	1.334672936482837	-0.9785252980009421	0.0	1.042311402332488	-0.42061003565961347	0.0	1.0367473702414116	-0.29848702916318415	0.0	1.0518664395280117	-0.3704431244867856	0.0	0.9789497014479971	-0.45221878077823235	0.0	0.9685859614736329	-0.5061797616931837	0.0	0.97905811794567	-0.5193518737202993	0.0	1.1111291454472316	-0.4506937387024507	0.0	1.1267917829402163	-0.5270727929726068	0.0	1.1563241067526289	-0.5582724870345078	0.0
71	2.3898692810457516	1.0486297817843442	-0.6721094206447412	0.0	0.9934791488272611	-0.6821978867255567	0.0	0.8916076124032963	-0.8476792589299962	0.0	0.8295818406698241	-0.9475798482803164	0.0	0.7755608028033567	-0.9675684116958398	0.0	0.7702849474418805	-0.9609395135789066	0.0	0.8348186927192319	-0.9660932121435015	0.0	1.1000247647658035	-0.6664628237435731	0.0	1.2159644971525303	-0.7388212655101472	0.0	1.330105513873693	-0.9537091793159758	0.0	1.3754179393393386	-0.9962364529398804	0.0	1.3896570275585762	-0.9870258847713971	0.0	1.3336030701453068	-0.9796098787207206	0.0	1.0406906329734826	-0.41621218977467456	0.0	1.0295355160189967	-0.2945208520208703	0.0	1.0468583873139992	-0.3658897212392301	0.0	0.9738796707486073	-0.45397418183345184	0.0	0.9528520530183667	-0.5188554693083579	0.0	0.971380169234071	-0.5396604910593085	0.0	1.1143090296582723	-0.44740537985254464	0.0	1.1336934100131557	-0.5242295814164484	0.0	1.1649946837871326	-0.5567010128237128	0.0
72	2.4235294117647057	1.0492517475602152	-0.6684282758373535	0.0	0.9941407617448966	-0.6776116593069346	0.0	0.8909237918289884	-0.8380093246577397	0.0	0.8288367667123547	-0.9467788855746091	0.0	0.7741108040457922	-0.9676356027466929	0.0	0.7690103474920361	-0.9613300621003569	0.0	0.834613014110828	-0.9660786972030696	0.0	1.101110494927464	-0.6627246144939023	0.0	1.2127129198570208	-0.7419592861557012	0.0	1.3291332881502893	-0.9548666154843459	0.0	1.375605655243894	-0.9967067095401407	0.0	1.3895301244386238	-0.9876263807355726	0.0	1.3330942042275984	-0.9807507135423094	0.0	1.0386023991907378	-0.4111601205690956	0.0	1.021991336683062	-0.2898614665360769	0.0	1.0409680451200547	-0.3605204297155518	0.0	0.9679195320997414	-0.4557392742656156	0.0	0.936692773480191	-0.5325929809423012	0.0	0.9623721117437234	-0.5632146547994952	0.0	1.1175060106873518	-0.44317411767868287	0.0	1.1432918717249165	-0.5206644813729739	0.0	1.1761425451817735	-0.5561859946283815	0.0
